<svg version="1.1" xmlns="http://www.w3.org/2000/svg" xmlns:xlink="http://www.w3.org/1999/xlink" width="54.46509" height="42.77421" viewBox="0,0,54.46509,42.77421"><g transform="translate(-208.57483,-158.60459)"><g data-paper-data="{&quot;isPaintingLayer&quot;:true}" fill="#abddff" fill-rule="nonzero" stroke="#000000" stroke-width="0" stroke-linecap="butt" stroke-linejoin="miter" stroke-miterlimit="10" stroke-dasharray="" stroke-dashoffset="0" style="mix-blend-mode: normal"><path d="M248.16655,159.85982c2.46636,2.46636 7.04732,7.04732 11.16745,11.16745c4.52596,4.52596 4.64337,12.34832 1.77366,15.21803c-2.63126,2.63126 -8.20393,8.20393 -12.99071,12.99071c-4.50842,4.50842 -8.31969,1.68792 -8.31969,-6.44468c0,-9.35296 0,-20.69098 0,-26.20933c0,-6.26113 4.99267,-10.09879 8.36929,-6.72218z"/><path d="M208.57483,181.93233c0,-1.60091 0,-3.44426 0,-4.51233c0,-1.64972 3.67354,-3.38272 7.32363,-3.38272c7.09831,0 31.35351,0 31.35351,0v11.92545c0,0 -27.76857,0 -34.25429,0c-2.57268,0 -4.42284,-2.36795 -4.42284,-4.0304z"/></g></g></svg>